PathFileType	4	(X/Y/Z)	Run_300 02
DataRate	CameraRate	NumFrames	NumMarkers	Units	OrigDataRate	OrigDataStartFrame	OrigNumFrames
100	100	4	42	mm	100	112	128
Frame#	Time	LASI			RASI			LPSI			RPSI			RTH1			RTH2			RTH3			LTH1			LTH2			LTH3			RTB1			RTB2			RTB3			LTB1			LTB2			LTB3			RCAL			RTOE			RMT5			LCAL			LTOE			LMT5			LACR			RACR			CLAV			C7			RUA1			RUA2			RUA3			RLEL			RMEL			LUA1			LUA2			LUA3			LLEL			LMEL			RFAsuperior			RFAradius			RFAulna			LFAsuperior			LFAradius			LFAulna			
		X1	Y1	Z1	X2	Y2	Z2	X3	Y3	Z3	X4	Y4	Z4	X5	Y5	Z5	X6	Y6	Z6	X7	Y7	Z7	X8	Y8	Z8	X9	Y9	Z9	X10	Y10	Z10	X11	Y11	Z11	X12	Y12	Z12	X13	Y13	Z13	X14	Y14	Z14	X15	Y15	Z15	X16	Y16	Z16	X17	Y17	Z17	X18	Y18	Z18	X19	Y19	Z19	X20	Y20	Z20	X21	Y21	Z21	X22	Y22	Z22	X23	Y23	Z23	X24	Y24	Z24	X25	Y25	Z25	X26	Y26	Z26	X27	Y27	Z27	X28	Y28	Z28	X29	Y29	Z29	X30	Y30	Z30	X31	Y31	Z31	X32	Y32	Z32	X33	Y33	Z33	X34	Y34	Z34	X35	Y35	Z35	X36	Y36	Z36	X37	Y37	Z37	X38	Y38	Z38	X39	Y39	Z39	X40	Y40	Z40	X41	Y41	Z41	X42	Y42	Z42	

109	1.51	942.749495	999.201464	-430.519462	927.429168	1006.124433	-192.424456	779.313749	1054.499932	-375.806346	772.240391	1059.321061	-275.234425	795.711736	777.100354	-141.688992	824.693103	679.028997	-152.54527	733.202637	613.343114	-165.814205	944.518944	812.254429	-487.145578	1025.932188	725.799976	-464.506331	1002.629022	608.885411	-438.766904	619.4123049999999	423.232882	-222.668052	532.23069	415.583256	-178.475396	454.971051	330.944561	-237.062265	1098.822643	438.047064	-368.142918	1063.403709	344.493033	-423.871473	1122.115178	249.871303	-350.540803	338.611606	371.34019	-267.002511	368.04756	151.873539	-271.761248	313.800954	190.061632	-180.462425	1059.048598	99.266132	-329.308515	1269.319796	158.926318	-321.945768	1242.341396	102.95875	-414.80813	903.661465	1492.578783	-472.854171	948.83089	1487.99522	-192.409013	1010.525602	1415.710142	-330.881781	874.883571	1516.670225	-319.547268	935.083525	1401.50912	-78.682265	870.235888	1341.233882	-61.104304	927.662888	1298.281108	-6.550822	918.958239	1232.376561	35.911399	875.27394	1191.325049	-15.978114	791.650045	1435.487027	-542.996923	747.608968	1392.04677	-479.522009	727.874237	1362.098376	-563.299631	662.959809	1295.712499	-577.379244	656.027106	1274.284387	-506.455577	1024.755192	1231.727755	-14.838567	1099.055331	1232.838732	-128.920236	1107.47485	1169.449478	-99.255346	773.061267	1258.314697	-585.7180090000001	885.12425	1184.816478	-531.233239	847.526902	1149.584899	-577.495863	
110	1.52	943.706517	994.465722	-431.206861	928.615627	1002.534555	-191.886917	780.435965	1047.873172	-377.600107	772.656467	1052.817101	-277.040403	801.587951	770.548163	-141.263038	832.701116	672.975493	-150.961138	743.329309	604.699164	-164.39206	945.147156	806.166353	-486.540381	1025.620903	720.780305	-464.333795	1000.879129	602.195887	-437.226851	626.641385	419.761953	-221.197009	538.824213	417.972199	-177.853432	455.866468	338.824654	-235.460268	1090.137173	428.273997	-365.188345	1052.848487	335.428378	-422.042197	1107.863331	238.982206	-348.154821	341.258363	387.204498	-267.712805	358.875613	166.46416	-269.161594	310.177784	209.056659	-176.678287	1040.706219	95.748925	-325.759177	1252.670956	141.710273	-320.003494	1221.437061	88.704635	-414.667092	904.154081	1487.325303	-474.667654	945.997066	1483.224687	-193.608136	1009.548183	1411.116059	-330.8898	873.854699	1512.119225	-321.571578	929.962652	1396.985337	-79.054866	864.040314	1337.277122	-62.928312	920.577525	1294.646441	-6.561488	911.050341	1229.185959	35.948158	867.86849	1188.35071	-16.390345	793.295964	1428.472379	-546.304672	748.80225	1384.955888	-483.054323	730.413509	1354.372988	-566.437937	666.424214	1287.121723	-580.818494	659.375233	1265.40714	-510.024817	1017.642402	1226.176729	-13.125658	1093.653459	1225.244972	-126.379147	1100.824315	1162.247146	-95.76553	777.271886	1251.964259	-588.188496	890.523957	1180.99191	-532.922228	853.9803910000001	1145.031419	-579.347036	
111	1.53	944.362945	989.06826	-431.814193	930.264136	997.452717	-191.434077	780.785815	1040.574562	-378.723726	772.914051	1045.217172	-278.364523	808.020116	762.811587	-140.428327	841.538422	665.898768	-148.715817	754.532466	595.310911	-162.50002	946.106093	800.0826510000001	-484.983403	1024.849763	715.564753	-462.984543	997.6780639999999	594.970075	-435.733167	635.870989	415.851041	-219.475929	547.631766	419.6918	-176.880613	459.846603	346.358596	-234.006518	1081.53631	417.056923	-363.313405	1040.882782	326.306693	-419.56741	1093.249371	228.111348	-345.455056	348.14052	402.245343	-268.415157	352.798641	180.920065	-266.374943	309.139115	227.746574	-173.415749	1020.623206	95.303505	-321.132598	1234.213165	121.004431	-316.859399	1198.231622	73.037853	-413.506282	904.425897	1481.012444	-476.281296	942.8226540000001	1477.562752	-194.781927	1008.555269	1405.534327	-330.670889	872.531339	1506.219517	-323.793418	924.185232	1391.853366	-79.475982	857.518864	1332.688361	-64.87351700000001	912.857679	1290.078003	-6.688096	902.040628	1225.096372	35.940999	859.357529	1184.590738	-16.91745	795.2256180000001	1420.024587	-549.706676	749.826508	1376.457182	-487.241183	733.5445089999999	1344.937478	-570.214039	670.66323	1276.924063	-585.2255	663.091131	1254.876297	-514.514816	1009.388758	1219.432914	-11.240897	1087.454929	1215.872019	-123.455769	1093.011706	1153.380316	-91.694827	782.343311	1244.108035	-591.508896	896.513662	1175.753064	-534.782726	861.264988	1139.061332	-581.594876	
112	1.54	944.01252	983.391002	-432.022312	931.485047	990.927875	-191.703663	779.588805	1033.080031	-378.872468	772.493754	1036.856505	-279.071789	814.727018	754.0895389999999	-139.623292	850.995392	658.1887840000001	-146.249962	766.588238	585.468045	-160.592471	946.420433	794.505575	-483.53681	1023.628857	709.442852	-461.014951	994.1328999999999	588.84127	-435.073926	647.122509	411.816004	-217.938037	558.663652	420.737438	-175.558668	467.233521	353.656682	-233.701721	1075.363431	407.423671	-362.602813	1030.559392	319.411406	-416.813647	1079.99371	219.66662	-342.303241	358.992517	415.945891	-269.000022	350.514979	194.880886	-263.171446	310.385086	245.760465	-170.764639	999.626387	97.148213	-316.336448	1214.693102	100.648381	-312.959178	1174.369436	60.067214	-411.460078	904.675509	1473.757315	-477.89321	939.325974	1471.458201	-195.591407	1007.834948	1399.033148	-330.247802	870.733582	1498.916418	-326.134996	917.732098	1386.100135	-79.942826	850.71912	1327.480856	-66.789297	904.619321	1284.530821	-7.016584	891.988249	1220.232141	35.830659	849.72921	1180.185653	-17.567756	797.383933	1410.310212	-553.123005	750.768024	1366.586571	-491.847581	737.210152	1334.07564	-574.541102	675.712553	1265.307487	-590.5158259999999	667.176563	1242.928699	-519.815412	1000.045959	1211.690595	-9.22461	1080.417937	1204.879854	-120.14023	1084.008843	1143.009975	-87.03323899999999	788.266932	1234.909532	-595.616252	902.973517	1169.094249	-536.729957	869.289769	1131.680252	-584.20329	
